<?xml version='1.0' encoding='UTF-8' standalone='no'?>
<!-- Created with Fritzing (https://fritzing.org/) -->
<svg xmlns="http://www.w3.org/2000/svg" baseProfile="tiny" height="2.71989in" version="1.2" viewBox="0 0 225.875 195.832" width="3.13715in" x="0in"  xmlns:svg="http://www.w3.org/2000/svg" y="0in">
 <g id="watermark" >
  <g >
   <g >
    <path d="M201.143,189.632c-0.604,0,-1.131,0.325,-1.422,0.809l-2.796,0l3.96,-4.071c0.146,-0.146,0.289,-0.322,0.428,-0.521c0.149,-0.222,0.228,-0.479,0.228,-0.768c0,-0.279,-0.097,-0.518,-0.287,-0.71c-0.19,-0.188,-0.444,-0.287,-0.754,-0.287l-4.636,0c-0.305,0,-0.555,0.06,-0.742,0.17c-0.219,0.13,-0.33,0.368,-0.33,0.707c0,0.329,0.111,0.562,0.33,0.692c0.188,0.111,0.438,0.168,0.742,0.168l3.148,0l-3.974,4.086c-0.146,0.147,-0.289,0.315,-0.425,0.504c-0.153,0.212,-0.23,0.472,-0.23,0.771c0,0.28,0.096,0.521,0.288,0.711c0.188,0.188,0.442,0.285,0.754,0.285l4.315,0c0.293,0.467,0.812,0.776,1.4,0.776c0.916,0,1.66,-0.744,1.66,-1.661C202.802,190.377,202.057,189.632,201.143,189.632zM201.143,191.895c-0.334,0,-0.604,-0.271,-0.604,-0.604c0,-0.333,0.27,-0.604,0.604,-0.604c0.332,0,0.604,0.271,0.604,0.604C201.746,191.626,201.475,191.895,201.143,191.895z" fill="#8C8C8C" />
    <path d="M184.2,179.59c-0.914,0,-1.659,0.745,-1.659,1.66c0,0.916,0.745,1.66,1.659,1.66s1.658,-0.744,1.658,-1.66C185.86,180.335,185.116,179.59,184.2,179.59zM184.201,181.853c-0.333,0,-0.604,-0.27,-0.604,-0.603s0.271,-0.603,0.604,-0.603c0.331,0,0.604,0.27,0.604,0.603S184.532,181.853,184.201,181.853z" fill="#8C8C8C" />
    <path d="M192.721,184.252c-0.193,-0.111,-0.439,-0.169,-0.732,-0.169l-1.465,0L190.524,181.561c0,-0.292,-0.057,-0.538,-0.166,-0.729C190.268,180.675,190.075,180.49,189.665,180.49c-0.34,0,-0.578,0.116,-0.709,0.342c-0.109,0.193,-0.167,0.438,-0.167,0.729l0,2.521l-0.481,0c-0.295,0,-0.539,0.06,-0.731,0.169c-0.228,0.129,-0.341,0.368,-0.341,0.708c0,0.412,0.185,0.603,0.341,0.692c0.192,0.111,0.438,0.168,0.731,0.168l0.481,0l0,4.362c0,0.277,0.026,0.533,0.081,0.768c0.056,0.246,0.154,0.464,0.298,0.645c0.146,0.186,0.345,0.332,0.595,0.436c0.241,0.098,0.555,0.146,0.93,0.146l0.896,0c0.292,0,0.539,-0.054,0.731,-0.166c0.154,-0.089,0.341,-0.281,0.341,-0.693c0,-0.338,-0.114,-0.578,-0.341,-0.709c-0.192,-0.109,-0.439,-0.168,-0.731,-0.168l-0.821,0c-0.138,0,-0.19,-0.019,-0.207,-0.024c-0.014,-0.034,-0.035,-0.103,-0.035,-0.231L190.526,185.82l1.465,0c0.295,0,0.541,-0.057,0.734,-0.168c0.152,-0.09,0.34,-0.28,0.34,-0.692C193.061,184.62,192.948,184.381,192.721,184.252z" fill="#8C8C8C" />
    <path d="M184.266,184.082l-1.191,0c-0.292,0,-0.538,0.059,-0.731,0.169c-0.226,0.129,-0.341,0.368,-0.341,0.708c0,0.412,0.188,0.604,0.341,0.691c0.193,0.113,0.439,0.168,0.731,0.168l0.544,0l0,5.362c0,0.293,0.057,0.539,0.167,0.73c0.131,0.227,0.367,0.341,0.708,0.341c0.411,0,0.604,-0.187,0.692,-0.341c0.111,-0.191,0.168,-0.438,0.168,-0.73L185.354,185.17c0,-0.386,-0.084,-0.656,-0.256,-0.83C184.923,184.168,184.653,184.082,184.266,184.082z" fill="#8C8C8C" />
    <path d="M180.431,184.252c-0.193,-0.111,-0.44,-0.169,-0.732,-0.169l-0.604,0c-0.25,0,-0.498,0.063,-0.734,0.187c-0.226,0.119,-0.433,0.271,-0.616,0.453l-0.644,0.604l0,-0.247c0,-0.291,-0.055,-0.538,-0.168,-0.729c-0.128,-0.228,-0.368,-0.34,-0.707,-0.34c-0.41,0,-0.604,0.184,-0.693,0.34c-0.11,0.191,-0.167,0.438,-0.167,0.729l0,4.801c-0.475,0.293,-0.791,0.816,-0.791,1.412c0,0.917,0.745,1.661,1.658,1.661c0.916,0,1.66,-0.744,1.66,-1.661c0,-0.596,-0.317,-1.119,-0.792,-1.412l0,-2.21l1.738,-1.564c0.1,-0.09,0.199,-0.164,0.297,-0.217c0.084,-0.045,0.174,-0.067,0.274,-0.067l0.288,0c0.292,0,0.539,-0.056,0.732,-0.169c0.155,-0.088,0.339,-0.279,0.339,-0.691C180.771,184.62,180.656,184.381,180.431,184.252zM176.232,191.895c-0.332,0,-0.603,-0.271,-0.603,-0.604c0,-0.333,0.271,-0.604,0.603,-0.604c0.333,0,0.604,0.271,0.604,0.604C176.836,191.626,176.565,191.895,176.232,191.895z" fill="#8C8C8C" />
    <path d="M173.715,180.733c-0.193,-0.111,-0.44,-0.167,-0.731,-0.167l-0.59,0c-0.2,0,-0.389,0.004,-0.562,0.016c-0.176,0.009,-0.345,0.035,-0.506,0.07c-0.168,0.041,-0.336,0.109,-0.496,0.202c-0.158,0.093,-0.319,0.222,-0.48,0.382c-0.334,0.314,-0.554,0.656,-0.652,1.017c-0.094,0.348,-0.143,0.735,-0.143,1.151l0,0.678l-0.483,0c-0.292,0,-0.539,0.059,-0.73,0.169c-0.227,0.13,-0.342,0.369,-0.342,0.708c0,0.412,0.185,0.604,0.341,0.693c0.191,0.111,0.438,0.166,0.73,0.166l0.483,0l0,5.362c0,0.293,0.057,0.539,0.167,0.73c0.13,0.227,0.367,0.341,0.708,0.341c0.411,0,0.603,-0.187,0.692,-0.341c0.111,-0.191,0.168,-0.438,0.168,-0.73l0,-5.36l0.92,0c0.293,0,0.54,-0.057,0.732,-0.168c0.155,-0.09,0.34,-0.28,0.34,-0.692c0,-0.34,-0.114,-0.579,-0.34,-0.708c-0.189,-0.111,-0.436,-0.17,-0.729,-0.17l-0.92,0l0,-0.678c0,-0.218,0.019,-0.41,0.056,-0.571c0.032,-0.141,0.103,-0.261,0.218,-0.367l0.002,-0.004l0.002,-0.002c0.082,-0.082,0.176,-0.126,0.29,-0.136c0.15,-0.015,0.339,-0.022,0.564,-0.022l0.56,0c0.291,0,0.539,-0.058,0.731,-0.168c0.154,-0.088,0.339,-0.281,0.339,-0.693C174.055,181.102,173.94,180.863,173.715,180.733z" fill="#8C8C8C" />
    <path d="M225.708,184.35c-0.089,-0.156,-0.282,-0.34,-0.693,-0.34c-0.339,0,-0.578,0.113,-0.707,0.34c-0.078,0.133,-0.127,0.293,-0.152,0.477l-0.021,-0.021c-0.216,-0.236,-0.466,-0.42,-0.747,-0.539c-0.277,-0.119,-0.563,-0.183,-0.849,-0.183l-0.709,0c-0.249,0,-0.466,0.015,-0.64,0.041c-0.182,0.026,-0.352,0.074,-0.51,0.14c-0.158,0.066,-0.313,0.15,-0.459,0.254c-0.139,0.097,-0.303,0.226,-0.486,0.377c-0.188,0.156,-0.342,0.302,-0.463,0.434c-0.127,0.141,-0.23,0.293,-0.306,0.455c-0.069,0.16,-0.122,0.337,-0.147,0.523c-0.026,0.178,-0.041,0.391,-0.041,0.631l0,2.386c0,0.24,0.015,0.451,0.041,0.631c0.025,0.188,0.078,0.361,0.147,0.521c0.074,0.164,0.179,0.318,0.306,0.457c0.119,0.129,0.274,0.274,0.463,0.433c0.186,0.153,0.35,0.28,0.486,0.379c0.146,0.103,0.299,0.188,0.459,0.254c0.158,0.065,0.329,0.112,0.51,0.14c0.174,0.026,0.389,0.039,0.64,0.039l0.709,0c0.298,0,0.591,-0.066,0.87,-0.199c0.244,-0.114,0.492,-0.291,0.73,-0.523l0,1.434c0,0.18,-0.025,0.334,-0.072,0.465c-0.043,0.119,-0.159,0.258,-0.344,0.406c-0.154,0.127,-0.309,0.217,-0.457,0.264c-0.15,0.049,-0.341,0.074,-0.563,0.074l-2.203,0c-0.293,0,-0.538,0.055,-0.732,0.166c-0.152,0.088,-0.34,0.282,-0.34,0.692c0,0.341,0.115,0.579,0.34,0.71c0.194,0.109,0.439,0.167,0.732,0.167l2.326,0c0.247,0,0.463,-0.015,0.638,-0.041c0.179,-0.026,0.351,-0.073,0.513,-0.14c0.153,-0.064,0.31,-0.15,0.455,-0.254c0.143,-0.101,0.305,-0.227,0.487,-0.379c0.185,-0.153,0.343,-0.299,0.463,-0.431c0.128,-0.141,0.229,-0.294,0.304,-0.456c0.071,-0.162,0.123,-0.338,0.148,-0.523c0.025,-0.182,0.041,-0.393,0.041,-0.631l0,-7.898C225.875,184.788,225.821,184.541,225.708,184.35zM224.139,188.81c0,0.188,-0.062,0.35,-0.188,0.49c-0.15,0.172,-0.394,0.403,-0.716,0.686l-0.002,0.003l-0.002,0.004c-0.139,0.13,-0.291,0.237,-0.453,0.325c-0.148,0.082,-0.325,0.121,-0.526,0.121L221.951,190.439c-0.222,0,-0.41,-0.021,-0.563,-0.072c-0.148,-0.049,-0.301,-0.137,-0.453,-0.264c-0.231,-0.186,-0.315,-0.322,-0.346,-0.404c-0.049,-0.131,-0.072,-0.285,-0.072,-0.465l0,-2.206c0,-0.18,0.023,-0.336,0.072,-0.467c0.029,-0.082,0.113,-0.217,0.346,-0.403c0.152,-0.127,0.305,-0.216,0.453,-0.265c0.153,-0.049,0.342,-0.072,0.563,-0.072l0.301,0c0.212,0,0.388,0.037,0.526,0.113c0.152,0.082,0.308,0.191,0.457,0.324c0.322,0.293,0.564,0.529,0.716,0.7c0.128,0.146,0.188,0.304,0.188,0.492L224.139,188.81z" fill="#8C8C8C" />
    <path d="M205.729,179.59c-0.914,0,-1.66,0.745,-1.66,1.66c0,0.916,0.746,1.66,1.66,1.66s1.66,-0.744,1.66,-1.66C207.389,180.335,206.643,179.59,205.729,179.59zM205.729,181.853c-0.332,0,-0.604,-0.27,-0.604,-0.603s0.271,-0.603,0.604,-0.603s0.604,0.27,0.604,0.603C206.333,181.583,206.061,181.853,205.729,181.853z" fill="#8C8C8C" />
    <path d="M216.415,189.858l-0.107,-3.419c-0.011,-0.178,-0.021,-0.338,-0.031,-0.489c-0.01,-0.162,-0.037,-0.322,-0.082,-0.476c-0.045,-0.158,-0.11,-0.309,-0.198,-0.453c-0.093,-0.146,-0.216,-0.289,-0.37,-0.42c-0.225,-0.192,-0.443,-0.334,-0.646,-0.416c-0.207,-0.084,-0.461,-0.127,-0.754,-0.127l-1.012,0c-0.259,0,-0.501,0.058,-0.716,0.164c-0.197,0.098,-0.39,0.203,-0.572,0.315l-0.003,0.002l-0.003,0.003l-0.837,0.555l0,-0.041c0,-0.291,-0.057,-0.539,-0.168,-0.733c-0.129,-0.226,-0.367,-0.339,-0.707,-0.339c-0.411,0,-0.604,0.185,-0.693,0.339c-0.109,0.194,-0.168,0.438,-0.168,0.733l0,6.099c0,0.295,0.059,0.539,0.168,0.734c0.09,0.153,0.282,0.338,0.693,0.338c0.34,0,0.578,-0.114,0.707,-0.338c0.111,-0.195,0.168,-0.439,0.168,-0.734L211.084,187.12l1.953,-1.215c0.04,-0.024,0.082,-0.048,0.121,-0.063c0.031,-0.016,0.07,-0.025,0.115,-0.031c0.049,-0.012,0.117,-0.016,0.195,-0.016l0.362,0c0.188,0,0.334,0.021,0.435,0.059c0.082,0.029,0.143,0.076,0.18,0.143c0.05,0.078,0.08,0.18,0.098,0.303c0.02,0.139,0.034,0.309,0.045,0.504l0.096,3.097c-0.457,0.297,-0.762,0.811,-0.762,1.394c0,0.917,0.746,1.661,1.66,1.661c0.916,0,1.66,-0.744,1.66,-1.661C217.241,190.683,216.908,190.145,216.415,189.858zM215.581,191.895c-0.334,0,-0.602,-0.271,-0.602,-0.604c0,-0.333,0.268,-0.604,0.602,-0.604c0.333,0,0.604,0.271,0.604,0.604C216.186,191.626,215.914,191.895,215.581,191.895z" fill="#8C8C8C" />
    <path d="M205.792,184.082l-1.193,0c-0.293,0,-0.539,0.059,-0.731,0.169c-0.226,0.129,-0.341,0.368,-0.341,0.708c0,0.412,0.186,0.604,0.341,0.691c0.192,0.113,0.438,0.168,0.731,0.168l0.545,0l0,5.362c0,0.293,0.055,0.539,0.168,0.73c0.127,0.227,0.365,0.341,0.707,0.341c0.41,0,0.604,-0.187,0.691,-0.341c0.111,-0.191,0.17,-0.438,0.17,-0.73L206.88,185.17c0,-0.386,-0.085,-0.656,-0.259,-0.83C206.449,184.168,206.176,184.082,205.792,184.082z" fill="#8C8C8C" />
   </g>
  </g>
 </g>
 <g partID="63900">
  <g transform="translate(148.499,92.3234)">
   <g id="schematic">
    <g>
     <path d="M13.5,14.966L9.9,14.966c-0.193,0,-0.35,-0.156,-0.35,-0.35s0.156,-0.35,0.35,-0.35L13.5,14.266c0.193,0,0.35,0.156,0.35,0.35S13.694,14.966,13.5,14.966z"/>
    </g>
    <g>
     <path d="M9.9,14.966L6.3,14.966c-0.193,0,-0.35,-0.156,-0.35,-0.35s0.157,-0.35,0.35,-0.35l3.6,0c0.193,0,0.35,0.156,0.35,0.35S10.093,14.966,9.9,14.966z"/>
    </g>
    <g>
     <polygon fill="#FFFFFF" points="9.9,14.616,6.3,7.416,9.9,7.416,13.5,7.416"/>
     <path d="M9.9,15.398L5.734,7.066l8.333,0L9.9,15.398zM6.866,7.766L9.9,13.834l3.034,-6.068L6.866,7.766z"/>
    </g>
    <g>
     <path d="M9.9,14.841c-0.124,0,-0.225,-0.101,-0.225,-0.225l0,-7.2c0,-0.124,0.101,-0.225,0.225,-0.225s0.225,0.101,0.225,0.225l0,7.2C10.124,14.74,10.024,14.841,9.9,14.841z"/>
    </g>
    <g>
     <path d="M1.8,12.141c-0.058,0,-0.115,-0.021,-0.159,-0.065c-0.088,-0.088,-0.088,-0.23,0,-0.318l2.34,-2.341c0.088,-0.088,0.23,-0.088,0.318,0s0.088,0.23,0,0.318l-2.34,2.341C1.915,12.12,1.858,12.141,1.8,12.141z"/>
    </g>
    <g>
     <path d="M2.16,15.381c-0.058,0,-0.115,-0.021,-0.159,-0.065c-0.088,-0.088,-0.088,-0.23,0,-0.318l2.34,-2.34c0.088,-0.088,0.23,-0.088,0.318,0s0.088,0.23,0,0.318l-2.34,2.34C2.276,15.359,2.218,15.381,2.16,15.381z"/>
    </g>
    <g id="connector0pin">
     <path d="M9.9,22.166c-0.193,0,-0.35,-0.156,-0.35,-0.35l0,-7.2c0,-0.193,0.156,-0.35,0.35,-0.35s0.35,0.156,0.35,0.35l0,7.2C10.249,22.01,10.093,22.166,9.9,22.166z" fill="#787878"/>
    </g>
    <g id="connector0terminal">
     <rect fill="none" height="0.001" width="0.001" x="9.9" y="21.816"/>
    </g>
    <g transform="matrix(1, 0, 0, 1, 3.429, 6.4262)">
     <g>
      <g transform="rotate(270)">
       <g>
        <g enable-background="new    ">
         <path d="M-11.647,5.54l-0.891,0L-12.538,5.388l0.342,-0.372c0.049,-0.053,0.093,-0.101,0.131,-0.145s0.071,-0.086,0.099,-0.128c0.026,-0.042,0.047,-0.084,0.062,-0.125c0.015,-0.043,0.021,-0.088,0.021,-0.138c0,-0.038,-0.005,-0.072,-0.017,-0.102s-0.027,-0.054,-0.047,-0.075c-0.021,-0.02,-0.045,-0.035,-0.073,-0.046s-0.06,-0.016,-0.094,-0.016c-0.062,0,-0.118,0.013,-0.167,0.038c-0.051,0.024,-0.098,0.057,-0.143,0.096l-0.1,-0.116c0.025,-0.023,0.055,-0.046,0.084,-0.065c0.029,-0.021,0.063,-0.039,0.097,-0.054s0.071,-0.026,0.109,-0.036c0.038,-0.008,0.079,-0.013,0.121,-0.013c0.063,0,0.119,0.009,0.169,0.026c0.051,0.018,0.094,0.043,0.129,0.076c0.035,0.032,0.063,0.072,0.082,0.119c0.019,0.048,0.028,0.101,0.028,0.16c0,0.056,-0.009,0.108,-0.026,0.158c-0.017,0.05,-0.041,0.1,-0.07,0.148c-0.031,0.048,-0.066,0.097,-0.109,0.146c-0.041,0.049,-0.087,0.1,-0.136,0.152L-12.32,5.37l0,0.008l0.673,0L-11.647,5.54z" fill="#787878"/>
        </g>
       </g>
      </g>
     </g>
    </g>
    <g id="connector1pin">
     <path d="M9.9,7.766c-0.193,0,-0.35,-0.157,-0.35,-0.35l0,-7.2c0,-0.193,0.156,-0.35,0.35,-0.35s0.35,0.157,0.35,0.35l0,7.2C10.249,7.609,10.093,7.766,9.9,7.766z" fill="#787878"/>
    </g>
    <g id="connector1terminal">
     <polygon fill="none" points="9.9,0.216,9.901,0.216,9.901,0.216"/>
    </g>
    <g transform="matrix(1, 0, 0, 1, 3.429, 1.3462)">
     <g>
      <g transform="rotate(270)">
       <g>
        <g enable-background="new    ">
         <path d="M-2.616,5.54l-0.172,0L-2.788,4.648c0,-0.028,0,-0.058,0,-0.09s0.001,-0.063,0.002,-0.095c0.001,-0.032,0.002,-0.063,0.003,-0.092c0.001,-0.028,0.002,-0.054,0.002,-0.076c-0.011,0.012,-0.021,0.021,-0.029,0.03s-0.017,0.017,-0.026,0.024s-0.018,0.016,-0.028,0.025c-0.01,0.008,-0.021,0.019,-0.035,0.03l-0.145,0.118l-0.094,-0.12l0.374,-0.292l0.146,0L-2.618,5.54z" fill="#787878"/>
        </g>
       </g>
      </g>
     </g>
    </g>
    <g>
     <path d="M0.18,13.536l1.08,-2.521l1.44,1.438L0.18,13.536z"/>
    </g>
    <g>
     <path d="M0.54,16.776l1.08,-2.521l1.438,1.438L0.54,16.776z"/>
    </g>
   </g>
  </g>
 </g>
 <g partID="58450">
  <g transform="translate(0,6.13993)">
   <g id="schematic">
    <rect class="interior rect" fill="#FFFFFF" height="135.9" stroke="#000000" stroke-linecap="round" stroke-width="0.9" width="78.3" x="14.85" y="14.85"/>
    <line class="pin" fill="none" id="connector61pin" stroke="#787878" stroke-linecap="round" stroke-width="0.699999" x1="93.2499" x2="107.65" y1="28.8" y2="28.8"/>
    <text class="text" fill="#8c8c8c" font-family="'Droid Sans'" font-size="3.49999" stroke="none" stroke-width="0" text-anchor="end" x="91.8499" y="29.4999">D0/RX</text>
    <g class="terminal" fill="none" height="0.699999" id="connector61terminal" stroke="none" stroke-width="0" width="0.699999" x="107.65" y="28.4499"/>
    <line class="pin" fill="none" id="connector62pin" stroke="#787878" stroke-linecap="round" stroke-width="0.699999" x1="93.2499" x2="107.65" y1="36" y2="36"/>
    <text class="text" fill="#8c8c8c" font-family="'Droid Sans'" font-size="3.49999" stroke="none" stroke-width="0" text-anchor="end" x="91.8499" y="36.6999">D1/TX</text>
    <g class="terminal" fill="none" height="0.699999" id="connector62terminal" stroke="none" stroke-width="0" width="0.699999" x="107.65" y="35.6499"/>
    <line class="pin" fill="none" id="connector63pin" stroke="#787878" stroke-linecap="round" stroke-width="0.699999" x1="93.2499" x2="107.65" y1="43.2" y2="43.2"/>
    <text class="text" fill="#8c8c8c" font-family="'Droid Sans'" font-size="3.49999" stroke="none" stroke-width="0" text-anchor="end" x="91.8499" y="43.8999">D2</text>
    <g class="terminal" fill="none" height="0.699999" id="connector63terminal" stroke="none" stroke-width="0" width="0.699999" x="107.65" y="42.8499"/>
    <line class="pin" fill="none" id="connector64pin" stroke="#787878" stroke-linecap="round" stroke-width="0.699999" x1="93.2499" x2="107.65" y1="50.4" y2="50.4"/>
    <text class="text" fill="#8c8c8c" font-family="'Droid Sans'" font-size="3.49999" stroke="none" stroke-width="0" text-anchor="end" x="91.8499" y="51.0999">D3 PWM</text>
    <g class="terminal" fill="none" height="0.699999" id="connector64terminal" stroke="none" stroke-width="0" width="0.699999" x="107.65" y="50.0499"/>
    <line class="pin" fill="none" id="connector65pin" stroke="#787878" stroke-linecap="round" stroke-width="0.699999" x1="93.2499" x2="107.65" y1="57.6" y2="57.6"/>
    <text class="text" fill="#8c8c8c" font-family="'Droid Sans'" font-size="3.49999" stroke="none" stroke-width="0" text-anchor="end" x="91.8499" y="58.2999">D4</text>
    <g class="terminal" fill="none" height="0.699999" id="connector65terminal" stroke="none" stroke-width="0" width="0.699999" x="107.65" y="57.2499"/>
    <line class="pin" fill="none" id="connector66pin" stroke="#787878" stroke-linecap="round" stroke-width="0.699999" x1="93.2499" x2="107.65" y1="64.8" y2="64.8"/>
    <text class="text" fill="#8c8c8c" font-family="'Droid Sans'" font-size="3.49999" stroke="none" stroke-width="0" text-anchor="end" x="91.8499" y="65.4999">D5 PWM</text>
    <g class="terminal" fill="none" height="0.699999" id="connector66terminal" stroke="none" stroke-width="0" width="0.699999" x="107.65" y="64.4499"/>
    <line class="pin" fill="none" id="connector67pin" stroke="#787878" stroke-linecap="round" stroke-width="0.699999" x1="93.2499" x2="107.65" y1="72" y2="72"/>
    <text class="text" fill="#8c8c8c" font-family="'Droid Sans'" font-size="3.49999" stroke="none" stroke-width="0" text-anchor="end" x="91.8499" y="72.6999">D6 PWM</text>
    <g class="terminal" fill="none" height="0.699999" id="connector67terminal" stroke="none" stroke-width="0" width="0.699999" x="107.65" y="71.6499"/>
    <line class="pin" fill="none" id="connector68pin" stroke="#787878" stroke-linecap="round" stroke-width="0.699999" x1="93.2499" x2="107.65" y1="79.2" y2="79.2"/>
    <text class="text" fill="#8c8c8c" font-family="'Droid Sans'" font-size="3.49999" stroke="none" stroke-width="0" text-anchor="end" x="91.8499" y="79.8999">D7</text>
    <g class="terminal" fill="none" height="0.699999" id="connector68terminal" stroke="none" stroke-width="0" width="0.699999" x="107.65" y="78.8499"/>
    <line class="pin" fill="none" id="connector51pin" stroke="#787878" stroke-linecap="round" stroke-width="0.699999" x1="93.2499" x2="107.65" y1="86.4" y2="86.4"/>
    <text class="text" fill="#8c8c8c" font-family="'Droid Sans'" font-size="3.49999" stroke="none" stroke-width="0" text-anchor="end" x="91.8499" y="87.0999">D8</text>
    <g class="terminal" fill="none" height="0.699999" id="connector51terminal" stroke="none" stroke-width="0" width="0.699999" x="107.65" y="86.0499"/>
    <line class="pin" fill="none" id="connector52pin" stroke="#787878" stroke-linecap="round" stroke-width="0.699999" x1="93.2499" x2="107.65" y1="93.6" y2="93.6"/>
    <text class="text" fill="#8c8c8c" font-family="'Droid Sans'" font-size="3.49999" stroke="none" stroke-width="0" text-anchor="end" x="91.8499" y="94.2999">D9 PWM</text>
    <g class="terminal" fill="none" height="0.699999" id="connector52terminal" stroke="none" stroke-width="0" width="0.699999" x="107.65" y="93.2499"/>
    <line class="pin" fill="none" id="connector53pin" stroke="#787878" stroke-linecap="round" stroke-width="0.699999" x1="93.2499" x2="107.65" y1="100.8" y2="100.8"/>
    <text class="text" fill="#8c8c8c" font-family="'Droid Sans'" font-size="3.49999" stroke="none" stroke-width="0" text-anchor="end" x="91.8499" y="101.5">D10 PWM/SS</text>
    <g class="terminal" fill="none" height="0.699999" id="connector53terminal" stroke="none" stroke-width="0" width="0.699999" x="107.65" y="100.45"/>
    <line class="pin" fill="none" id="connector54pin" stroke="#787878" stroke-linecap="round" stroke-width="0.699999" x1="93.2499" x2="107.65" y1="108" y2="108"/>
    <text class="text" fill="#8c8c8c" font-family="'Droid Sans'" font-size="3.49999" stroke="none" stroke-width="0" text-anchor="end" x="91.8499" y="108.7">D11 PWM/MOSI</text>
    <g class="terminal" fill="none" height="0.699999" id="connector54terminal" stroke="none" stroke-width="0" width="0.699999" x="107.65" y="107.65"/>
    <line class="pin" fill="none" id="connector55pin" stroke="#787878" stroke-linecap="round" stroke-width="0.699999" x1="93.2499" x2="107.65" y1="115.2" y2="115.2"/>
    <text class="text" fill="#8c8c8c" font-family="'Droid Sans'" font-size="3.49999" stroke="none" stroke-width="0" text-anchor="end" x="91.8499" y="115.9">D12/MISO</text>
    <g class="terminal" fill="none" height="0.699999" id="connector55terminal" stroke="none" stroke-width="0" width="0.699999" x="107.65" y="114.85"/>
    <line class="pin" fill="none" id="connector41pin" stroke="none" stroke-linecap="round" stroke-width="0" x1="93.2499" x2="107.65" y1="122.4" y2="122.4"/>
    <rect class="terminal" fill="none" height="0.699999" id="connector41terminal" stroke="none" stroke-width="0" width="0.699999" x="107.65" y="122.05"/>
    <line class="pin" fill="none" id="connector56pin" stroke="#787878" stroke-linecap="round" stroke-width="0.699999" x1="93.2499" x2="107.65" y1="122.4" y2="122.4"/>
    <text class="text" fill="#8c8c8c" font-family="'Droid Sans'" font-size="3.49999" stroke="none" stroke-width="0" text-anchor="end" x="91.8499" y="123.1">D13/SCK</text>
    <g class="terminal" fill="none" height="0.699999" id="connector56terminal" stroke="none" stroke-width="0" width="0.699999" x="107.65" y="122.05"/>
    <line class="pin" fill="none" id="connector43pin" stroke="none" stroke-linecap="round" stroke-width="0" x1="0.349999" x2="14.75" y1="28.8" y2="28.8"/>
    <rect class="terminal" fill="none" height="0.699999" id="connector43terminal" stroke="none" stroke-width="0" width="0.699999" x="-0.349999" y="28.4499"/>
    <line class="pin" fill="none" id="connector85pin" stroke="#787878" stroke-linecap="round" stroke-width="0.699999" x1="0.349999" x2="14.75" y1="28.8" y2="28.8"/>
    <text class="text" fill="#8c8c8c" font-family="'Droid Sans'" font-size="3.49999" stroke="none" stroke-width="0" text-anchor="start" x="16.15" y="29.4999">RESET</text>
    <g class="terminal" fill="none" height="0.699999" id="connector85terminal" stroke="none" stroke-width="0" width="0.699999" x="-0.349999" y="28.4499"/>
    <line class="pin" fill="none" id="connector49pin" stroke="#787878" stroke-linecap="round" stroke-width="0.699999" x1="0.349999" x2="14.75" y1="36" y2="36"/>
    <text class="text" fill="#8c8c8c" font-family="'Droid Sans'" font-size="3.49999" stroke="none" stroke-width="0" text-anchor="start" x="16.15" y="36.6999">RESET2</text>
    <rect class="terminal" fill="none" height="0.699999" id="connector49terminal" stroke="none" stroke-width="0" width="0.699999" x="-0.349999" y="35.6499"/>
    <line class="pin" fill="none" id="connector58pin" stroke="#787878" stroke-linecap="round" stroke-width="0.699999" x1="0.349999" x2="14.75" y1="43.2" y2="43.2"/>
    <text class="text" fill="#8c8c8c" font-family="'Droid Sans'" font-size="3.49999" stroke="none" stroke-width="0" text-anchor="start" x="16.15" y="43.8999">AREF</text>
    <g class="terminal" fill="none" height="0.699999" id="connector58terminal" stroke="none" stroke-width="0" width="0.699999" x="-0.349999" y="42.8499"/>
    <line class="pin" fill="none" id="connector84pin" stroke="#787878" stroke-linecap="round" stroke-width="0.699999" x1="0.349999" x2="14.75" y1="50.4" y2="50.4"/>
    <text class="text" fill="#8c8c8c" font-family="'Droid Sans'" font-size="3.49999" stroke="none" stroke-width="0" text-anchor="start" x="16.15" y="51.0999">ioref</text>
    <g class="terminal" fill="none" height="0.699999" id="connector84terminal" stroke="none" stroke-width="0" width="0.699999" x="-0.349999" y="50.0499"/>
    <line class="pin" fill="none" id="connector0pin" stroke="#787878" stroke-linecap="round" stroke-width="0.699999" x1="0.349999" x2="14.75" y1="64.8" y2="64.8"/>
    <text class="text" fill="#8c8c8c" font-family="'Droid Sans'" font-size="3.49999" stroke="none" stroke-width="0" text-anchor="start" x="16.15" y="65.4999">A0</text>
    <g class="terminal" fill="none" height="0.699999" id="connector0terminal" stroke="none" stroke-width="0" width="0.699999" x="-0.349999" y="64.4499"/>
    <line class="pin" fill="none" id="connector1pin" stroke="#787878" stroke-linecap="round" stroke-width="0.699999" x1="0.349999" x2="14.75" y1="72" y2="72"/>
    <text class="text" fill="#8c8c8c" font-family="'Droid Sans'" font-size="3.49999" stroke="none" stroke-width="0" text-anchor="start" x="16.15" y="72.6999">A1</text>
    <g class="terminal" fill="none" height="0.699999" id="connector1terminal" stroke="none" stroke-width="0" width="0.699999" x="-0.349999" y="71.6499"/>
    <line class="pin" fill="none" id="connector2pin" stroke="#787878" stroke-linecap="round" stroke-width="0.699999" x1="0.349999" x2="14.75" y1="79.2" y2="79.2"/>
    <text class="text" fill="#8c8c8c" font-family="'Droid Sans'" font-size="3.49999" stroke="none" stroke-width="0" text-anchor="start" x="16.15" y="79.8999">A2</text>
    <g class="terminal" fill="none" height="0.699999" id="connector2terminal" stroke="none" stroke-width="0" width="0.699999" x="-0.349999" y="78.8499"/>
    <line class="pin" fill="none" id="connector3pin" stroke="#787878" stroke-linecap="round" stroke-width="0.699999" x1="0.349999" x2="14.75" y1="86.4" y2="86.4"/>
    <text class="text" fill="#8c8c8c" font-family="'Droid Sans'" font-size="3.49999" stroke="none" stroke-width="0" text-anchor="start" x="16.15" y="87.0999">A3</text>
    <g class="terminal" fill="none" height="0.699999" id="connector3terminal" stroke="none" stroke-width="0" width="0.699999" x="-0.349999" y="86.0499"/>
    <line class="pin" fill="none" id="connector48pin" stroke="none" stroke-linecap="round" stroke-width="0" x1="0.349999" x2="14.75" y1="93.6" y2="93.6"/>
    <rect class="terminal" fill="none" height="0.699999" id="connector48terminal" stroke="none" stroke-width="0" width="0.699999" x="-0.349999" y="93.2499"/>
    <line class="pin" fill="none" id="connector45pin" stroke="none" stroke-linecap="round" stroke-width="0" x1="0.349999" x2="14.75" y1="93.6" y2="93.6"/>
    <rect class="terminal" fill="none" height="0.699999" id="connector45terminal" stroke="none" stroke-width="0" width="0.699999" x="-0.349999" y="93.2499"/>
    <line class="pin" fill="none" id="connector4pin" stroke="none" stroke-linecap="round" stroke-width="0" x1="0.349999" x2="14.75" y1="93.6" y2="93.6"/>
    <g class="terminal" fill="none" height="0.699999" id="connector4terminal" stroke="none" stroke-width="0" width="0.699999" x="-0.349999" y="93.2499"/>
    <line class="pin" fill="none" id="connector39pin" stroke="none" stroke-linecap="round" stroke-width="0" x1="0.349999" x2="14.75" y1="93.6" y2="93.6"/>
    <rect class="terminal" fill="none" height="0.699999" id="connector39terminal" stroke="none" stroke-width="0" width="0.699999" x="-0.349999" y="93.2499"/>
    <line class="pin" fill="none" id="connector47pin" stroke="none" stroke-linecap="round" stroke-width="0" x1="0.349999" x2="14.75" y1="93.6" y2="93.6"/>
    <rect class="terminal" fill="none" height="0.699999" id="connector47terminal" stroke="none" stroke-width="0" width="0.699999" x="-0.349999" y="93.2499"/>
    <line class="pin" fill="none" id="connector42pin" stroke="none" stroke-linecap="round" stroke-width="0" x1="0.349999" x2="14.75" y1="93.6" y2="93.6"/>
    <rect class="terminal" fill="none" height="0.699999" id="connector42terminal" stroke="none" stroke-width="0" width="0.699999" x="-0.349999" y="93.2499"/>
    <line class="pin" fill="none" id="connector59pin" stroke="#787878" stroke-linecap="round" stroke-width="0.699999" x1="0.349999" x2="14.75" y1="93.6" y2="93.6"/>
    <text class="text" fill="#8c8c8c" font-family="'Droid Sans'" font-size="3.49999" stroke="none" stroke-width="0" text-anchor="start" x="16.15" y="94.2999">A4/SDA</text>
    <g class="terminal" fill="none" height="0.699999" id="connector59terminal" stroke="none" stroke-width="0" width="0.699999" x="-0.349999" y="93.2499"/>
    <line class="pin" fill="none" id="connector5pin" stroke="none" stroke-linecap="round" stroke-width="0" x1="0.349999" x2="14.75" y1="100.8" y2="100.8"/>
    <g class="terminal" fill="none" height="0.699999" id="connector5terminal" stroke="none" stroke-width="0" width="0.699999" x="-0.349999" y="100.45"/>
    <line class="pin" fill="none" id="connector60pin" stroke="#787878" stroke-linecap="round" stroke-width="0.699999" x1="0.349999" x2="14.75" y1="100.8" y2="100.8"/>
    <text class="text" fill="#8c8c8c" font-family="'Droid Sans'" font-size="3.49999" stroke="none" stroke-width="0" text-anchor="start" x="16.15" y="101.5">A5/SCL</text>
    <g class="terminal" fill="none" height="0.699999" id="connector60terminal" stroke="none" stroke-width="0" width="0.699999" x="-0.349999" y="100.45"/>
    <line class="pin" fill="none" id="connector91pin" stroke="#787878" stroke-linecap="round" stroke-width="0.699999" x1="0.349999" x2="14.75" y1="136.8" y2="136.8"/>
    <text class="text" fill="#8c8c8c" font-family="'Droid Sans'" font-size="3.49999" stroke="none" stroke-width="0" text-anchor="start" x="16.15" y="137.5">N/C</text>
    <g class="terminal" fill="none" height="0.699999" id="connector91terminal" stroke="none" stroke-width="0" width="0.699999" x="-0.349999" y="136.45"/>
    <line class="pin" fill="none" id="connector88pin" stroke="none" stroke-linecap="round" stroke-width="0" x1="57.6" x2="57.6" y1="150.85" y2="165.25"/>
    <g class="terminal" fill="none" height="0.699999" id="connector88terminal" stroke="none" stroke-width="0" width="0.699999" x="57.2499" y="165.25"/>
    <line class="pin" fill="none" id="connector57pin" stroke="none" stroke-linecap="round" stroke-width="0" x1="57.6" x2="57.6" y1="150.85" y2="165.25"/>
    <g class="terminal" fill="none" height="0.699999" id="connector57terminal" stroke="none" stroke-width="0" width="0.699999" x="57.2499" y="165.25"/>
    <line class="pin" fill="none" id="connector44pin" stroke="none" stroke-linecap="round" stroke-width="0" x1="57.6" x2="57.6" y1="150.85" y2="165.25"/>
    <rect class="terminal" fill="none" height="0.699999" id="connector44terminal" stroke="none" stroke-width="0" width="0.699999" x="57.2499" y="165.25"/>
    <line class="pin" fill="none" id="connector50pin" stroke="none" stroke-linecap="round" stroke-width="0" x1="57.6" x2="57.6" y1="150.85" y2="165.25"/>
    <rect class="terminal" fill="none" height="0.699999" id="connector50terminal" stroke="none" stroke-width="0" width="0.699999" x="57.2499" y="165.25"/>
    <line class="pin" fill="none" id="connector89pin" stroke="#787878" stroke-linecap="round" stroke-width="0.699999" x1="57.6" x2="57.6" y1="150.85" y2="165.25"/>
    <g transform="matrix(1, 0, 0, 1, 58.2999, 149.45)">
     <g>
      <g transform="rotate(270)">
       <g>
        <text class="text" fill="#8c8c8c" font-family="'Droid Sans'" font-size="3.49999" stroke="none" stroke-width="0" text-anchor="start" x="0" y="0">GND</text>
       </g>
      </g>
     </g>
    </g>
    <g class="terminal" fill="none" height="0.699999" id="connector89terminal" stroke="none" stroke-width="0" width="0.699999" x="57.2499" y="165.25"/>
    <line class="pin" fill="none" id="connector86pin" stroke="#787878" stroke-linecap="round" stroke-width="0.699999" x1="36" x2="36" y1="0.349999" y2="14.75"/>
    <g transform="matrix(1, 0, 0, 1, 36.6999, 16.15)">
     <g>
      <g transform="rotate(270)">
       <g>
        <text class="text" fill="#8c8c8c" font-family="'Droid Sans'" font-size="3.49999" stroke="none" stroke-width="0" text-anchor="end" x="0" y="0">3V3</text>
       </g>
      </g>
     </g>
    </g>
    <g class="terminal" fill="none" height="0.699999" id="connector86terminal" stroke="none" stroke-width="0" width="0.699999" x="35.6499" y="-0.349999"/>
    <line class="pin" fill="none" id="connector40pin" stroke="none" stroke-linecap="round" stroke-width="0" x1="50.4" x2="50.4" y1="0.349999" y2="14.75"/>
    <rect class="terminal" fill="none" height="0.699999" id="connector40terminal" stroke="none" stroke-width="0" width="0.699999" x="50.0499" y="-0.349999"/>
    <line class="pin" fill="none" id="connector46pin" stroke="none" stroke-linecap="round" stroke-width="0" x1="50.4" x2="50.4" y1="0.349999" y2="14.75"/>
    <rect class="terminal" fill="none" height="0.699999" id="connector46terminal" stroke="none" stroke-width="0" width="0.699999" x="50.0499" y="-0.349999"/>
    <line class="pin" fill="none" id="connector87pin" stroke="#787878" stroke-linecap="round" stroke-width="0.699999" x1="50.4" x2="50.4" y1="0.349999" y2="14.75"/>
    <g transform="matrix(1, 0, 0, 1, 51.0999, 16.15)">
     <g>
      <g transform="rotate(270)">
       <g>
        <text class="text" fill="#8c8c8c" font-family="'Droid Sans'" font-size="3.49999" stroke="none" stroke-width="0" text-anchor="end" x="0" y="0">5V</text>
       </g>
      </g>
     </g>
    </g>
    <g class="terminal" fill="none" height="0.699999" id="connector87terminal" stroke="none" stroke-width="0" width="0.699999" x="50.0499" y="-0.349999"/>
    <line class="pin" fill="none" id="connector90pin" stroke="#787878" stroke-linecap="round" stroke-width="0.699999" x1="64.8" x2="64.8" y1="0.349999" y2="14.75"/>
    <g transform="matrix(1, 0, 0, 1, 65.4999, 16.15)">
     <g>
      <g transform="rotate(270)">
       <g>
        <text class="text" fill="#8c8c8c" font-family="'Droid Sans'" font-size="3.49999" stroke="none" stroke-width="0" text-anchor="end" x="0" y="0">VIN</text>
       </g>
      </g>
     </g>
    </g>
    <g class="terminal" fill="none" height="0.699999" id="connector90terminal" stroke="none" stroke-width="0" width="0.699999" x="64.4499" y="-0.349999"/>
    <text class="text" fill="#000000" font-family="'Droid Sans'" font-size="4.25001" id="label" stroke="none" stroke-width="0" text-anchor="middle" x="54.4501" y="76.4498">Arduino</text>
    <text class="text" fill="#000000" font-family="'Droid Sans'" font-size="4.25001" id="label" stroke="none" stroke-width="0" text-anchor="middle" x="54.4501" y="80.9833">Uno</text>
    <text class="text" fill="#000000" font-family="'Droid Sans'" font-size="4.25001" id="label" stroke="none" stroke-width="0" text-anchor="middle" x="54.4501" y="85.5167">(Rev3)</text>
   </g>
  </g>
 </g>
 <g partID="63930">
  <g transform="translate(170.099,92.3234)">
   <g id="schematic">
    <g>
     <path d="M13.5,14.966L9.9,14.966c-0.193,0,-0.35,-0.156,-0.35,-0.35s0.156,-0.35,0.35,-0.35L13.5,14.266c0.193,0,0.35,0.156,0.35,0.35S13.694,14.966,13.5,14.966z"/>
    </g>
    <g>
     <path d="M9.9,14.966L6.3,14.966c-0.193,0,-0.35,-0.156,-0.35,-0.35s0.157,-0.35,0.35,-0.35l3.6,0c0.193,0,0.35,0.156,0.35,0.35S10.093,14.966,9.9,14.966z"/>
    </g>
    <g>
     <polygon fill="#FFFFFF" points="9.9,14.616,6.3,7.416,9.9,7.416,13.5,7.416"/>
     <path d="M9.9,15.398L5.734,7.066l8.333,0L9.9,15.398zM6.866,7.766L9.9,13.834l3.034,-6.068L6.866,7.766z"/>
    </g>
    <g>
     <path d="M9.9,14.841c-0.124,0,-0.225,-0.101,-0.225,-0.225l0,-7.2c0,-0.124,0.101,-0.225,0.225,-0.225s0.225,0.101,0.225,0.225l0,7.2C10.124,14.74,10.024,14.841,9.9,14.841z"/>
    </g>
    <g>
     <path d="M1.8,12.141c-0.058,0,-0.115,-0.021,-0.159,-0.065c-0.088,-0.088,-0.088,-0.23,0,-0.318l2.34,-2.341c0.088,-0.088,0.23,-0.088,0.318,0s0.088,0.23,0,0.318l-2.34,2.341C1.915,12.12,1.858,12.141,1.8,12.141z"/>
    </g>
    <g>
     <path d="M2.16,15.381c-0.058,0,-0.115,-0.021,-0.159,-0.065c-0.088,-0.088,-0.088,-0.23,0,-0.318l2.34,-2.34c0.088,-0.088,0.23,-0.088,0.318,0s0.088,0.23,0,0.318l-2.34,2.34C2.276,15.359,2.218,15.381,2.16,15.381z"/>
    </g>
    <g id="connector0pin">
     <path d="M9.9,22.166c-0.193,0,-0.35,-0.156,-0.35,-0.35l0,-7.2c0,-0.193,0.156,-0.35,0.35,-0.35s0.35,0.156,0.35,0.35l0,7.2C10.249,22.01,10.093,22.166,9.9,22.166z" fill="#787878"/>
    </g>
    <g id="connector0terminal">
     <rect fill="none" height="0.001" width="0.001" x="9.9" y="21.816"/>
    </g>
    <g transform="matrix(1, 0, 0, 1, 3.429, 6.4262)">
     <g>
      <g transform="rotate(270)">
       <g>
        <g enable-background="new    ">
         <path d="M-11.647,5.54l-0.891,0L-12.538,5.388l0.342,-0.372c0.049,-0.053,0.093,-0.101,0.131,-0.145s0.071,-0.086,0.099,-0.128c0.026,-0.042,0.047,-0.084,0.062,-0.125c0.015,-0.043,0.021,-0.088,0.021,-0.138c0,-0.038,-0.005,-0.072,-0.017,-0.102s-0.027,-0.054,-0.047,-0.075c-0.021,-0.02,-0.045,-0.035,-0.073,-0.046s-0.06,-0.016,-0.094,-0.016c-0.062,0,-0.118,0.013,-0.167,0.038c-0.051,0.024,-0.098,0.057,-0.143,0.096l-0.1,-0.116c0.025,-0.023,0.055,-0.046,0.084,-0.065c0.029,-0.021,0.063,-0.039,0.097,-0.054s0.071,-0.026,0.109,-0.036c0.038,-0.008,0.079,-0.013,0.121,-0.013c0.063,0,0.119,0.009,0.169,0.026c0.051,0.018,0.094,0.043,0.129,0.076c0.035,0.032,0.063,0.072,0.082,0.119c0.019,0.048,0.028,0.101,0.028,0.16c0,0.056,-0.009,0.108,-0.026,0.158c-0.017,0.05,-0.041,0.1,-0.07,0.148c-0.031,0.048,-0.066,0.097,-0.109,0.146c-0.041,0.049,-0.087,0.1,-0.136,0.152L-12.32,5.37l0,0.008l0.673,0L-11.647,5.54z" fill="#787878"/>
        </g>
       </g>
      </g>
     </g>
    </g>
    <g id="connector1pin">
     <path d="M9.9,7.766c-0.193,0,-0.35,-0.157,-0.35,-0.35l0,-7.2c0,-0.193,0.156,-0.35,0.35,-0.35s0.35,0.157,0.35,0.35l0,7.2C10.249,7.609,10.093,7.766,9.9,7.766z" fill="#787878"/>
    </g>
    <g id="connector1terminal">
     <polygon fill="none" points="9.9,0.216,9.901,0.216,9.901,0.216"/>
    </g>
    <g transform="matrix(1, 0, 0, 1, 3.429, 1.3462)">
     <g>
      <g transform="rotate(270)">
       <g>
        <g enable-background="new    ">
         <path d="M-2.616,5.54l-0.172,0L-2.788,4.648c0,-0.028,0,-0.058,0,-0.09s0.001,-0.063,0.002,-0.095c0.001,-0.032,0.002,-0.063,0.003,-0.092c0.001,-0.028,0.002,-0.054,0.002,-0.076c-0.011,0.012,-0.021,0.021,-0.029,0.03s-0.017,0.017,-0.026,0.024s-0.018,0.016,-0.028,0.025c-0.01,0.008,-0.021,0.019,-0.035,0.03l-0.145,0.118l-0.094,-0.12l0.374,-0.292l0.146,0L-2.618,5.54z" fill="#787878"/>
        </g>
       </g>
      </g>
     </g>
    </g>
    <g>
     <path d="M0.18,13.536l1.08,-2.521l1.44,1.438L0.18,13.536z"/>
    </g>
    <g>
     <path d="M0.54,16.776l1.08,-2.521l1.438,1.438L0.54,16.776z"/>
    </g>
   </g>
  </g>
 </g>
 <g partID="69110">
  <g transform="translate(176.866,92.8902)">
   <g transform="matrix(0,-1,1,0,0,0)">
    <g id="schematic" >
     <text class="text" fill="#8c8c8c" font-family="'Droid Sans'" font-size="2.50169" id="text22" stroke="none" stroke-width="0" text-anchor="middle" x="25.5672"  y="2.08341">2</text>
     <text class="text" fill="#8c8c8c" font-family="'Droid Sans'" font-size="2.50169" id="text26" stroke="none" stroke-width="0" text-anchor="middle" x="3.95266"  y="2.08341">1</text>
     <rect fill="none" height="5.42921" id="rect206" stroke="#000000" stroke-width="0.673636" width="14.3028" x="7.56446"  y="0.432639"/>
     <line class="pin" connectorname="1" id="connector0pin" stroke="#787878" stroke-linecap="round" stroke-width="0.700471" x1="0.350234" x2="7.55509"  y1="3.13412" y2="3.13412"/>
     <g class="terminal" fill="none" height="0.000283656" id="connector0terminal" stroke="none" stroke-width="0" width="0.000283656" x="0.350234"  y="3.13412"/>
     <line class="pin" connectorname="2" id="connector1pin" stroke="#787878" stroke-linecap="round" stroke-width="0.700471" x1="29.1698" x2="21.9648"  y1="3.13412" y2="3.13412"/>
     <g class="terminal" fill="none" height="0.000283656" id="connector1terminal" stroke="none" stroke-width="0" width="0.000283656" x="29.1698"  y="3.13412"/>
    </g>
   </g>
  </g>
 </g>
 <g partID="65480">
  <g transform="translate(155.266,92.8902)">
   <g transform="matrix(0,-1,1,0,0,0)">
    <g id="schematic" >
     <text class="text" fill="#8c8c8c" font-family="'Droid Sans'" font-size="2.50169" id="text22" stroke="none" stroke-width="0" text-anchor="middle" x="25.5672"  y="2.08341">2</text>
     <text class="text" fill="#8c8c8c" font-family="'Droid Sans'" font-size="2.50169" id="text26" stroke="none" stroke-width="0" text-anchor="middle" x="3.95266"  y="2.08341">1</text>
     <rect fill="none" height="5.42921" id="rect206" stroke="#000000" stroke-width="0.673636" width="14.3028" x="7.56446"  y="0.432639"/>
     <line class="pin" connectorname="1" id="connector0pin" stroke="#787878" stroke-linecap="round" stroke-width="0.700471" x1="0.350234" x2="7.55509"  y1="3.13412" y2="3.13412"/>
     <g class="terminal" fill="none" height="0.000283656" id="connector0terminal" stroke="none" stroke-width="0" width="0.000283656" x="0.350234"  y="3.13412"/>
     <line class="pin" connectorname="2" id="connector1pin" stroke="#787878" stroke-linecap="round" stroke-width="0.700471" x1="29.1698" x2="21.9648"  y1="3.13412" y2="3.13412"/>
     <g class="terminal" fill="none" height="0.000283656" id="connector1terminal" stroke="none" stroke-width="0" width="0.000283656" x="29.1698"  y="3.13412"/>
    </g>
   </g>
  </g>
 </g>
 <g partID="68280">
  <line stroke="#404040" stroke-linecap="round" stroke-width="0.699998" x1="180.029" x2="180" y1="171.684" y2="114.14"/>
 </g>
 <circle cx="180.029" cy="171.684" fill="black" r="0.72" stroke="none" stroke-width="0"/>
 <g partID="67670">
  <line stroke="#404040" stroke-linecap="round" stroke-width="0.699998" x1="57.5999" x2="180.029" y1="171.74" y2="171.684"/>
 </g>
 <circle cx="180.029" cy="171.684" fill="black" r="0.72" stroke="none" stroke-width="0"/>
 <g partID="67910">
  <line stroke="#404040" stroke-linecap="round" stroke-width="0.699998" x1="158.373" x2="108" y1="56.4643" y2="56.5399"/>
 </g>
 <circle cx="158.373" cy="56.4643" fill="black" r="0.72" stroke="none" stroke-width="0"/>
 <g partID="67800">
  <line stroke="#404040" stroke-linecap="round" stroke-width="0.699998" x1="158.4" x2="158.373" y1="63.7203" y2="56.4643"/>
 </g>
 <circle cx="158.373" cy="56.4643" fill="black" r="0.72" stroke="none" stroke-width="0"/>
 <g partID="68350">
  <line stroke="#404040" stroke-linecap="round" stroke-width="0.699998" x1="180" x2="158.4" y1="114.14" y2="114.14"/>
 </g>
 <circle cx="180" cy="114.14" fill="black" r="0.72" stroke="none" stroke-width="0"/>
 <g partID="69220">
  <line stroke="#404040" stroke-linecap="round" stroke-width="0.699998" x1="179.982" x2="108" y1="49.302" y2="49.3399"/>
 </g>
 <circle cx="179.982" cy="49.302" fill="black" r="0.72" stroke="none" stroke-width="0"/>
 <g partID="69150">
  <line stroke="#404040" stroke-linecap="round" stroke-width="0.699998" x1="180" x2="179.982" y1="63.7203" y2="49.302"/>
 </g>
 <circle cx="179.982" cy="49.302" fill="black" r="0.72" stroke="none" stroke-width="0"/>
 <g id="partLabel" partID="58450">
  <g transform="translate(73.9843,0)">
   <g fill="#000000" fill-opacity="1" font-family="'DroidSans'" font-size="5.000" font-style="normal" font-weight="normal" id="schematicLabel" stroke="none">
    <text x="0" y="5.000">Arduino uno</text>
   </g>
  </g>
 </g>
 <g id="partLabel" partID="63900">
  <g transform="translate(119.321,95.5918)">
   <g fill="#000000" fill-opacity="1" font-family="'DroidSans'" font-size="5.000" font-style="normal" font-weight="normal" id="schematicLabel" stroke="none">
    <text x="0" y="5.000">LED1</text>
    <text x="0" y="10.000">Red (633nm)</text>
   </g>
  </g>
 </g>
 <g id="partLabel" partID="63930">
  <g transform="translate(185.075,96.091)">
   <g fill="#000000" fill-opacity="1" font-family="'DroidSans'" font-size="5.000" font-style="normal" font-weight="normal" id="schematicLabel" stroke="none">
    <text x="0" y="5.000">LED2</text>
    <text x="0" y="10.000">Red (633nm)</text>
   </g>
  </g>
 </g>
 <g id="partLabel" partID="69110">
  <g transform="translate(185.849,62.5545)">
   <g fill="#000000" fill-opacity="1" font-family="'DroidSans'" font-size="5.000" font-style="normal" font-weight="normal" id="schematicLabel" stroke="none">
    <text x="0" y="5.000">R2</text>
    <text x="0" y="10.000">220&#x3a9;</text>
   </g>
  </g>
 </g>
 <g id="partLabel" partID="65480">
  <g transform="translate(164.249,62.5545)">
   <g fill="#000000" fill-opacity="1" font-family="'DroidSans'" font-size="5.000" font-style="normal" font-weight="normal" id="schematicLabel" stroke="none">
    <text x="0" y="5.000">R1</text>
    <text x="0" y="10.000">220&#x3a9;</text>
   </g>
  </g>
 </g>
</svg>
